<mxfile host="app.diagrams.net" modified="2023-12-23T10:47:15.738Z" agent="Mozilla/5.0 (Windows NT 10.0; Win64; x64) AppleWebKit/537.36 (KHTML, like Gecko) Chrome/120.0.0.0 Safari/537.36" etag="n1VltVBc_-FXWxOttH2U" version="22.1.11" type="device">
  <diagram name="Sayfa -1" id="XVkmNwbRlRVfzTptzFFb">
    <mxGraphModel dx="788" dy="658" grid="1" gridSize="10" guides="1" tooltips="1" connect="1" arrows="1" fold="1" page="1" pageScale="1" pageWidth="827" pageHeight="1169" math="0" shadow="0">
      <root>
        <mxCell id="0" />
        <mxCell id="1" parent="0" />
        <mxCell id="MDGUpUQ7AVYyJ_9abxur-9" style="edgeStyle=orthogonalEdgeStyle;rounded=0;orthogonalLoop=1;jettySize=auto;html=1;exitX=0.5;exitY=1;exitDx=0;exitDy=0;" edge="1" parent="1" source="MDGUpUQ7AVYyJ_9abxur-1" target="MDGUpUQ7AVYyJ_9abxur-3">
          <mxGeometry relative="1" as="geometry" />
        </mxCell>
        <mxCell id="MDGUpUQ7AVYyJ_9abxur-1" value="BaÅŸla" style="ellipse;whiteSpace=wrap;html=1;" vertex="1" parent="1">
          <mxGeometry x="354" y="20" width="120" height="40" as="geometry" />
        </mxCell>
        <mxCell id="MDGUpUQ7AVYyJ_9abxur-8" style="edgeStyle=orthogonalEdgeStyle;rounded=0;orthogonalLoop=1;jettySize=auto;html=1;exitX=0.5;exitY=1;exitDx=0;exitDy=0;" edge="1" parent="1" source="MDGUpUQ7AVYyJ_9abxur-3" target="MDGUpUQ7AVYyJ_9abxur-4">
          <mxGeometry relative="1" as="geometry" />
        </mxCell>
        <mxCell id="MDGUpUQ7AVYyJ_9abxur-3" value="let x&lt;br&gt;let n" style="shape=parallelogram;perimeter=parallelogramPerimeter;whiteSpace=wrap;html=1;fixedSize=1;" vertex="1" parent="1">
          <mxGeometry x="354" y="100" width="120" height="60" as="geometry" />
        </mxCell>
        <mxCell id="MDGUpUQ7AVYyJ_9abxur-7" style="edgeStyle=orthogonalEdgeStyle;rounded=0;orthogonalLoop=1;jettySize=auto;html=1;exitX=0.5;exitY=1;exitDx=0;exitDy=0;" edge="1" parent="1" source="MDGUpUQ7AVYyJ_9abxur-4" target="MDGUpUQ7AVYyJ_9abxur-5">
          <mxGeometry relative="1" as="geometry" />
        </mxCell>
        <mxCell id="MDGUpUQ7AVYyJ_9abxur-11" style="edgeStyle=orthogonalEdgeStyle;rounded=0;orthogonalLoop=1;jettySize=auto;html=1;exitX=0;exitY=0.5;exitDx=0;exitDy=0;entryX=1;entryY=0.5;entryDx=0;entryDy=0;" edge="1" parent="1" source="MDGUpUQ7AVYyJ_9abxur-4" target="MDGUpUQ7AVYyJ_9abxur-10">
          <mxGeometry relative="1" as="geometry" />
        </mxCell>
        <mxCell id="MDGUpUQ7AVYyJ_9abxur-4" value="i=x; i &amp;lt;= n; i++" style="shape=hexagon;perimeter=hexagonPerimeter2;whiteSpace=wrap;html=1;fixedSize=1;" vertex="1" parent="1">
          <mxGeometry x="354" y="200" width="120" height="80" as="geometry" />
        </mxCell>
        <mxCell id="MDGUpUQ7AVYyJ_9abxur-6" style="edgeStyle=orthogonalEdgeStyle;rounded=0;orthogonalLoop=1;jettySize=auto;html=1;exitX=1;exitY=0.5;exitDx=0;exitDy=0;entryX=1;entryY=0.5;entryDx=0;entryDy=0;" edge="1" parent="1" source="MDGUpUQ7AVYyJ_9abxur-5" target="MDGUpUQ7AVYyJ_9abxur-4">
          <mxGeometry relative="1" as="geometry" />
        </mxCell>
        <mxCell id="MDGUpUQ7AVYyJ_9abxur-5" value="i" style="shape=document;whiteSpace=wrap;html=1;boundedLbl=1;" vertex="1" parent="1">
          <mxGeometry x="354" y="310" width="120" height="80" as="geometry" />
        </mxCell>
        <mxCell id="MDGUpUQ7AVYyJ_9abxur-10" value="Bitir" style="ellipse;whiteSpace=wrap;html=1;" vertex="1" parent="1">
          <mxGeometry x="180" y="220" width="120" height="40" as="geometry" />
        </mxCell>
      </root>
    </mxGraphModel>
  </diagram>
</mxfile>
